<?xml version="1.0" encoding="UTF-8"?><svg xmlns="http://www.w3.org/2000/svg" xmlns:xlink="http://www.w3.org/1999/xlink" viewBox="0 0 203.33 206.08"><defs><style>.e{fill:url(#d);fill-rule:evenodd;}.f{fill:#fff;}</style><linearGradient id="d" x1="154.79" y1="193.83" x2="54.76" y2="20.56" gradientTransform="matrix(1, 0, 0, 1, 0, 0)" gradientUnits="userSpaceOnUse"><stop offset="0" stop-color="#0f7bb6"/><stop offset=".18" stop-color="#53b28e"/><stop offset="1" stop-color="#003963"/></linearGradient></defs><g id="a"/><g id="b"><g id="c"><path class="e" d="M190.13,157.71c18.29-33.1,16.98-75.31-.22-108.99-9.58-18.76-24.46-35.63-44.04-43.42C76.89-22.13-20.35,62.35,3.75,134.4c26.75,79.97,143.78,100.39,186.37,23.31Z"/><path class="f" d="M177.6,82.53c-10.44-32.12-39.01-52.88-72.78-52.88-.65,0-1.18,.53-1.18,1.18v3.3c0,.65,.54,1.18,1.19,1.18,39.08,0,70.87,31.79,70.87,70.88s-31.79,70.88-70.87,70.88c-30.81,0-57.91-19.68-67.41-48.99-.1-.3-.31-.54-.59-.69-.28-.14-.6-.17-.9-.07l-3.14,1.02c-.3,.1-.55,.31-.69,.59-.14,.28-.17,.6-.07,.9,10.28,31.64,39.52,52.9,72.76,52.9h0c8.01,0,15.97-1.27,23.67-3.77,19.44-6.32,35.26-19.83,44.54-38.04,9.28-18.21,10.91-38.95,4.59-58.39Z"/><g><path class="f" d="M75.02,94.59l-12.08,33.68-5.1-1.53,11-29.99h-17.01l-.68-4.48h22.17l1.7,2.32Z"/><path class="f" d="M93.11,125.1c-2.91,0-5.53-.73-7.85-2.18-2.32-1.45-4.14-3.48-5.44-6.07-1.3-2.59-1.96-5.49-1.96-8.7s.65-6.03,1.96-8.56c1.3-2.53,3.12-4.51,5.44-5.93,2.32-1.42,4.94-2.13,7.85-2.13s5.52,.71,7.82,2.13c2.31,1.42,4.11,3.38,5.41,5.9,1.3,2.51,1.96,5.34,1.96,8.48s-.65,6.18-1.96,8.79c-1.3,2.61-3.11,4.64-5.41,6.1-2.31,1.45-4.91,2.18-7.82,2.18Zm0-28.92c-1.93,0-3.66,.5-5.19,1.5-1.53,1-2.72,2.4-3.57,4.2-.85,1.8-1.28,3.83-1.28,6.1,0,2.38,.43,4.52,1.28,6.41,.85,1.89,2.04,3.37,3.57,4.45,1.53,1.08,3.26,1.62,5.19,1.62s3.66-.52,5.19-1.56c1.53-1.04,2.72-2.48,3.57-4.34,.85-1.85,1.28-3.95,1.28-6.29s-.43-4.37-1.28-6.21c-.85-1.83-2.04-3.27-3.57-4.31-1.53-1.04-3.26-1.56-5.19-1.56Z"/><path class="f" d="M120.83,103.78c-1.7,0-3.24-.38-4.62-1.13-1.38-.76-2.48-1.86-3.29-3.32-.81-1.45-1.22-3.17-1.22-5.13s.42-3.57,1.25-5.05c.83-1.47,1.95-2.61,3.35-3.4,1.4-.79,2.91-1.19,4.54-1.19,2.61,0,4.78,.86,6.52,2.58,1.74,1.72,2.61,4.07,2.61,7.06,0,1.89-.42,3.56-1.25,5.02-.83,1.46-1.95,2.58-3.35,3.37-1.4,.79-2.91,1.19-4.54,1.19Zm0-15.08c-1.17,0-2.17,.46-3.01,1.39-.83,.93-1.25,2.28-1.25,4.05s.4,3.24,1.19,4.17c.79,.93,1.81,1.39,3.06,1.39,1.17,0,2.17-.46,3-1.39,.83-.93,1.25-2.3,1.25-4.11s-.41-3.18-1.22-4.11c-.81-.93-1.82-1.39-3.03-1.39Zm2.89,35.66l17.18-40.26,5.39,.23-17.18,40.26-5.39-.23Zm25.74,0c-2.61,0-4.78-.86-6.52-2.58-1.74-1.72-2.61-4.05-2.61-7,0-1.89,.42-3.56,1.25-5.02,.83-1.45,1.94-2.58,3.32-3.37,1.38-.79,2.9-1.19,4.56-1.19,2.61,0,4.76,.85,6.46,2.55,1.7,1.7,2.55,4.05,2.55,7.03,0,1.89-.42,3.56-1.25,5.02-.83,1.46-1.94,2.58-3.32,3.37-1.38,.79-2.86,1.19-4.45,1.19Zm0-15.08c-1.17,0-2.18,.46-3.03,1.39-.85,.93-1.28,2.28-1.28,4.05s.41,3.25,1.22,4.2c.81,.95,1.84,1.42,3.09,1.42,1.13,0,2.12-.47,2.95-1.42,.83-.94,1.25-2.32,1.25-4.14s-.41-3.09-1.22-4.05c-.81-.96-1.81-1.45-2.98-1.45Z"/></g></g></g></svg>